<svg transform="scale(1)" version="1.1" id="Layer_1" xmlns="http://www.w3.org/2000/svg" xmlns:xlink="http://www.w3.org/1999/xlink" x="0px" y="0px" viewBox="0 0 500 500" xml:space="preserve" class="show_show__wrapper__graphic__5Waiy "><title>React</title><style type="text/css">
	.st0{fill:#ffffff;}
	.st1{fill:#000000;}
	.st2{fill:#1d9cf0;}
	.st3{fill:none;}
	.st4{fill:#1d9cf0;}
</style><g id="Loading_Screen"><path class="st0" d="M57.2,213.1h385.6c11.6,0,21,9.4,21,21v83.7c0,11.6-9.4,21-21,21H57.2c-11.6,0-21-9.4-21-21v-83.7
		C36.2,222.5,45.6,213.1,57.2,213.1z"></path><path class="st1" d="M442.8,213.1c11.6,0,21,9.4,21,21v83.7c0,11.6-9.4,21-21,21l0,0H57.2c-11.6,0-21-9.4-21-21l0,0v-83.7
		c0-11.6,9.4-21,21-21H442.8 M442.8,211.7H57.2c-12.4,0-22.4,10-22.4,22.4v83.7c0,12.4,10,22.4,22.4,22.4h385.6
		c12.4,0,22.4-10,22.4-22.4v-83.7C465.2,221.7,455.2,211.7,442.8,211.7z"></path><path class="st2" d="M354.2,213.1v125.7h-297c-11.6,0-21-9.4-21-21l0,0v-83.7c0-11.6,9.4-21,21-21H354.2z"></path></g><g id="Character"><path class="st1" d="M291.1,328.5c0,0-3,5.5-2.5,6.8s6.7,3.4,6.5,4s-13.6,0.3-14.1-0.4s-0.3-1-0.4-2.6s4.9-9.3,4.9-9.3"></path><path class="st1" d="M290.4,340.2c-4,0-9.4-0.2-10-1c-0.4-0.5-0.5-1.2-0.5-1.9c0-0.3,0-0.6,0-1.1c-0.1-1.7,3.8-7.9,5-9.7
		c0.2-0.3,0.6-0.4,0.9-0.2c0,0,0,0,0.1,0c0.3,0.2,0.4,0.6,0.2,1c0,0,0,0,0,0c-2.3,3.6-4.8,8-4.8,8.9c0,0.5,0,0.9,0,1.2
		c0,0.6,0,0.7,0.1,0.9c1.2,0.4,8.5,0.7,11.8,0.5l-1.1-0.5c-2.4-1.1-3.9-1.9-4.2-2.8c-0.6-1.4,1.5-5.6,2.5-7.4c0.2-0.3,0.6-0.5,1-0.3
		c0.3,0.2,0.5,0.6,0.3,0.9c0,0,0,0.1,0,0.1c-1.5,2.8-2.6,5.6-2.4,6.1s2.4,1.5,3.5,2c2.3,1.1,3.3,1.6,3,2.4c-0.2,0.5-0.7,0.6-1.1,0.6
		C293.3,340.2,291.8,340.3,290.4,340.2z"></path><path class="st1" d="M284.7,276.4l-24-6.8l-20.6,30.7c0,0-28.8,18.5-28.8,19.4c0,1.2,4.9,9.3,4.9,9.3s18.3-7.2,33.1-13.9
		c11.9-5.4,24-23.1,24-23.1l22.9,10.5l-14.1,26.1l10.8,0.9c0,0,15.4-20.9,20.5-32.5S284.7,276.4,284.7,276.4z"></path><path class="st1" d="M292.9,330.1L292.9,330.1l-10.8-0.9c-0.2,0-0.4-0.2-0.5-0.4c-0.1-0.2-0.1-0.5,0-0.7l13.8-25.4l-21.7-9.9
		c-2.1,3-13,17.9-24,22.9c-14.7,6.6-33,13.9-33.1,13.9c-0.3,0.1-0.7,0-0.9-0.3c-1.5-2.5-5-8.5-5-9.7c0-0.5,0-1.2,29-19.9l20.5-30.6
		c0.2-0.3,0.5-0.4,0.8-0.3l24,6.8c1.1,0.3,24.6,6.6,29,15.8c0.9,1.8,1,3.9,0.1,5.7c-5.1,11.5-20.4,32.4-20.6,32.6
		C293.3,330,293.1,330.1,292.9,330.1z M283.2,327.9l9.3,0.8c1.9-2.7,15.5-21.5,20.2-32c0.7-1.4,0.6-3.1-0.1-4.5
		c-4.1-8.6-27.8-15-28.1-15l0,0l-23.6-6.8l-20.3,30.3c-0.1,0.1-0.1,0.1-0.2,0.2c-10.6,6.8-26.6,17.2-28.5,19
		c1.3,2.8,2.8,5.6,4.5,8.3c3.2-1.3,19.3-7.7,32.5-13.7c11.6-5.2,23.6-22.7,23.7-22.9c0.2-0.3,0.6-0.4,0.9-0.2l22.9,10.5
		c0.4,0.2,0.5,0.6,0.4,0.9c0,0,0,0.1,0,0.1L283.2,327.9z"></path><path class="st0" d="M342.1,251.2c0,0,10,0.3,10.2,0s2.2-15.4,0.6-14.8s-4.8,9.3-4.8,9.3l-7.2-0.7"></path><path class="st1" d="M349.2,252c-1.6,0-3.9,0-7.2-0.1c-0.4,0-0.7-0.3-0.7-0.7c0,0,0,0,0,0c0-0.4,0.3-0.7,0.7-0.7
		c3.9,0.1,8.3,0.2,9.6,0.1c0.4-2.1,1.4-10.7,1-13.1c-1.6,2.7-3,5.5-4,8.5c-0.1,0.3-0.4,0.5-0.7,0.4l-7.2-0.7c-0.4,0-0.7-0.4-0.6-0.8
		c0,0,0,0,0,0c0.1-0.4,0.4-0.7,0.8-0.6l6.6,0.6c1-2.5,3.4-8.5,5-9.2c0.4-0.2,0.8,0,1.1,0.3c1.3,1.6-0.5,15-0.9,15.6
		C352.6,251.9,352.5,252,349.2,252z"></path><path class="st0" d="M289.8,238.5c-4.5-2-8.7,2.4-11.2,5.5c-6.5,8.2-11.8,17.6-17.5,26.4c0,0,12.4,21.5,29.5,10.7l19-28.8h30.7
		c0,0,0.1-2.3,0-8C340.2,244.4,291.3,239.2,289.8,238.5z"></path><path class="st1" d="M280.8,284.8c-1.3,0-2.7-0.2-4-0.5c-9.9-2.5-16.2-13.1-16.5-13.6c-0.1-0.2-0.1-0.5,0-0.7
		c1.7-2.6,3.4-5.3,5-7.9c3.9-6.4,8.1-12.6,12.7-18.6c1.6-2,6.5-8.2,12-5.7c1.2,0.4,16.9,2.2,46.7,5.5c4.1,0.4,4.1,0.4,4.2,1
		c0.1,5.7,0,7.9,0,8c0,0.4-0.3,0.7-0.7,0.7h-30.3l-18.8,28.4c0,0.1-0.1,0.2-0.2,0.2C287.9,283.6,284.4,284.8,280.8,284.8z
		 M261.8,270.4c1.2,1.9,7,10.5,15.4,12.6c4.3,1.1,8.6,0.2,12.9-2.4l18.9-28.6c0.1-0.2,0.4-0.3,0.6-0.3h30c0-1,0-3.1,0-6.6l-3-0.3
		c-31.6-3.4-46.1-5.1-47.1-5.6l0,0c-3-1.3-6.4,0.4-10.4,5.3c-4.5,5.9-8.7,12.1-12.5,18.5C265,265.4,263.4,267.9,261.8,270.4
		L261.8,270.4z"></path><path class="st0" d="M294.4,238.2c-5.3-1.2-3.3-10.4-1.9-14.1c0.3-0.8,0.7-1.6,1.3-2.3c1.2-1.2,2.9-1.8,4.6-1.6
		c1.7,0.2,3.3,0.4,5,0.8c3.7,0.6,7.5,0.3,11.1-1c1.2-0.4,2.6-1,3.7-0.3c0.7,0.5,1.1,1.3,1.1,2.1c0.1,2-0.8,3.9-2.4,5
		c-1.6,1.2-3.5,1.4-5.4,1.7c0.2,1.5,0.5,2-0.4,3.2c-0.9,1.1-2,2.1-3.2,2.8c-1.3,0.7-2.7,1.4-4,1.9c-2.9,1.3-5.8,2.4-9.1,1.8
		L294.4,238.2z"></path><path class="st1" d="M296.6,239.1c-0.7,0-1.3-0.1-2-0.2l-0.3-0.1c-1.3-0.3-2.5-1.2-3.1-2.4c-1.9-3.5-0.4-9.8,0.7-12.7
		c0.3-0.9,0.8-1.8,1.4-2.5c1.4-1.3,3.2-2,5.1-1.8c1.2,0.1,2.4,0.2,3.5,0.5c0.5,0.1,1,0.2,1.5,0.3c3.6,0.6,7.3,0.3,10.7-0.9
		c1.3-0.5,2.9-1,4.3-0.2c0.9,0.6,1.4,1.6,1.5,2.6c0.2,2.2-0.8,4.3-2.6,5.6c-1.5,1-3.2,1.6-5,1.7c0.3,1,0.1,2.2-0.6,3
		c-0.9,1.2-2.1,2.2-3.4,3c-1,0.6-2.1,1.2-3.2,1.6l-0.9,0.4C301.8,238.3,299.2,239,296.6,239.1z M298.1,220.8
		c-1.4-0.1-2.8,0.4-3.8,1.4c-0.5,0.6-0.9,1.3-1.1,2c-1.1,3.1-2.3,8.7-0.8,11.5c0.4,0.9,1.2,1.5,2.2,1.7l0,0l0.2,0.1
		c3.1,0.6,5.6-0.4,8.7-1.8l0.9-0.4c1-0.4,2-0.9,3-1.5c1.1-0.7,2.2-1.6,3-2.6c0.6-0.8,0.6-1.1,0.4-2.1l-0.1-0.6c0-0.2,0-0.4,0.1-0.5
		c0.1-0.2,0.3-0.3,0.5-0.3l0.3-0.1c1.7-0.1,3.3-0.6,4.8-1.5c1.4-1,2.2-2.6,2.1-4.4c0-0.6-0.3-1.2-0.8-1.6c-0.8-0.5-2-0.1-3,0.3
		c-3.7,1.3-7.7,1.7-11.5,1c-0.5-0.1-1-0.2-1.6-0.3c-1.1-0.3-2.2-0.4-3.3-0.5L298.1,220.8z"></path><path class="st0" d="M308.6,235.6c0,0,0.4,4.4-0.4,4.8s-2-0.8-2-0.8"></path><path class="st1" d="M307.8,241.2c-0.8-0.1-1.6-0.5-2.2-1.1c-0.3-0.3-0.3-0.7,0-1c0,0,0,0,0,0c0.3-0.3,0.7-0.3,1,0
		c0.4,0.5,1.1,0.8,1.2,0.7c0.2-1.4,0.2-2.8,0.1-4.2c0-0.4,0.3-0.7,0.7-0.7c0.3,0,0.6,0.2,0.7,0.6c0.3,3.2,0,5.1-0.8,5.5
		C308.3,241.1,308.1,241.2,307.8,241.2z"></path><path class="st0" d="M311.9,228.1c0.8,1.9-2.3,7-3.1,8.5c-1.2,2.1-2.4,4.3-3.7,6.4c-0.8,1.3-4.4-0.6-4.8-1.3l-2.4,5.7
		c0,0-2-0.5-4.1-3.3s-1.8-3.6-1.8-3.6l3.6-6.1c1.7,0.8,3.8,0.5,5.2-0.7c2.9-2,5.2-6.3,5.2-6.3S311.1,226.2,311.9,228.1z"></path><path class="st1" d="M297.9,248c-0.1,0-0.1,0-0.2,0c-0.1,0-2.2-0.6-4.5-3.6c-1.6-2.1-2.2-3.6-1.9-4.3l3.6-6.2
		c0.2-0.3,0.6-0.4,0.9-0.2c1.5,0.6,3.2,0.4,4.5-0.7c2.7-1.9,4.9-6,5-6.1c0.1-0.2,0.3-0.3,0.5-0.4c1-0.2,5.7-0.9,6.6,1.3l0,0
		c0.7,1.8-1,5.2-2.9,8.7l-0.2,0.4c-1.2,2.1-2.4,4.3-3.7,6.4c-0.4,0.6-1,0.9-1.7,0.8c-1.2-0.1-2.4-0.6-3.4-1.3l-2,4.8
		C298.4,247.8,298.2,248,297.9,248z M292.7,240.6c0.3,1.1,0.9,2.1,1.7,2.9c0.8,1.2,1.9,2.2,3.1,2.9l2.1-5.1c0.1-0.2,0.3-0.4,0.6-0.4
		c0.3,0,0.5,0.1,0.6,0.4c0.9,0.8,2,1.3,3.2,1.4c0.1,0,0.3,0,0.4-0.1c1.3-2.1,2.5-4.2,3.7-6.3l0.2-0.4c2.3-4,3.2-6.5,2.9-7.5
		c-0.3-0.8-2.9-0.8-4.7-0.5c-1.3,2.4-3.1,4.5-5.2,6.3c-1.5,1.2-3.5,1.5-5.3,1L292.7,240.6z"></path><path class="st0" d="M305.9,241.2c-1.4-0.4-2.2-1.8-2-3.2"></path><path class="st1" d="M305.9,242c-0.1,0-0.1,0-0.2,0c-1.7-0.5-2.8-2.2-2.5-3.9c0-0.4,0.4-0.7,0.8-0.6c0.4,0,0.7,0.3,0.7,0.7
		c0,0,0,0,0,0c-0.2,1.1,0.4,2.1,1.5,2.5c0.4,0.1,0.6,0.5,0.5,0.8c0,0,0,0,0,0C306.4,241.8,306.2,242,305.9,242z"></path><path class="st0" d="M303.8,234.7c0.2-0.6,0.3-1.2,0.2-1.8c0-0.5-0.1-1-0.2-1.4c-0.2-0.5-0.5-0.8-1-1c-0.4-0.1-0.9,0-1.2,0.2
		c-0.3,0.2-0.6,0.6-0.9,0.9c-1,1.6-1,3.6-0.1,5.3l0-0.2"></path><path class="st1" d="M300.5,237.5c-0.2,0-0.4-0.1-0.5-0.3c-1-1.9-1-4.2,0.1-6c0.3-0.5,0.6-0.8,1.1-1.1c0.5-0.3,1.2-0.5,1.8-0.3
		c0.7,0.2,1.2,0.7,1.4,1.4c0.2,0.5,0.3,1.1,0.3,1.6c0.1,0.7,0,1.5-0.3,2.2c-0.2,0.3-0.7,0.4-1,0.2c-0.3-0.2-0.4-0.5-0.3-0.8
		c0.2-0.5,0.2-1,0.1-1.4c0-0.4-0.1-0.8-0.2-1.2c-0.1-0.3-0.3-0.5-0.5-0.6c-0.2-0.1-0.4,0-0.6,0.1c-0.3,0.2-0.5,0.4-0.6,0.7
		c-0.8,1.3-0.9,2.9-0.3,4.2c0.1,0.1,0.2,0.2,0.2,0.3c0.1,0.4-0.1,0.7-0.4,0.9C300.7,237.5,300.6,237.5,300.5,237.5z"></path><path class="st1" d="M300.3,241.6c-0.9-0.9-1.5-2.1-1.7-3.3c0,0-1.7,3.4,0.6,5.8L300.3,241.6z"></path><path class="st1" d="M299.2,244.8c-0.2,0-0.4-0.1-0.5-0.2c-2.6-2.8-0.8-6.4-0.7-6.6c0.2-0.3,0.6-0.5,1-0.3c0.2,0.1,0.3,0.3,0.4,0.5
		c0.2,1.1,0.7,2.1,1.5,2.9c0.2,0.2,0.2,0.5,0.1,0.8l-1.1,2.5c-0.1,0.2-0.3,0.4-0.5,0.4L299.2,244.8z M298.7,240.6
		c-0.1,0.7,0.1,1.4,0.4,2l0.4-0.9C299.2,241.3,298.9,241,298.7,240.6L298.7,240.6z"></path><ellipse class="st1" transform="matrix(0.619 -0.7854 0.7854 0.619 -65.8804 331.0257)" cx="308.2" cy="233.4" rx="0.9" ry="0.3"></ellipse><line class="st3" x1="309.2" y1="233.1" x2="308.1" y2="231.6"></line><path class="st1" d="M309.2,233.8c-0.2,0-0.4-0.1-0.6-0.3l-1.1-1.5c-0.2-0.3-0.2-0.7,0.1-1s0.7-0.2,1,0.1c0,0,0,0,0,0l1.1,1.5
		c0.2,0.3,0.2,0.7-0.1,1c0,0,0,0,0,0C309.5,233.8,309.3,233.9,309.2,233.8z"></path><path class="st1" d="M214.7,318.4c0,0-11.1,6.6-11.1,7.7s-1.2,0.5,2.6,8.5c1.6,3.4,9,5.6,8.3,3c-2.2-7.4-2-8.2-2-8.2l8.9-3.5"></path><path class="st1" d="M213.2,339.4c-2.4,0-6.5-1.9-7.7-4.5c-3.2-6.8-3-7.7-2.7-8.5c0-0.1,0-0.2,0.1-0.3c0-0.4,0-1.5,11.5-8.3
		c0.4-0.1,0.8,0.1,0.9,0.5c0.1,0.2,0,0.5-0.2,0.7c-4.9,2.9-10.1,6.3-10.8,7.2c0,0.2-0.1,0.4-0.1,0.5c-0.1,0.5-0.4,1.2,2.6,7.5
		c0.8,1.8,3.6,3.3,5.6,3.7c0.5,0.1,0.9,0.1,1.4,0c0,0,0-0.1,0-0.1c-1.4-4.8-2.1-7.9-2-8.5c0-0.2,0.2-0.4,0.4-0.5l8.9-3.5
		c0.4-0.1,0.8,0,0.9,0.4c0.1,0.4,0,0.8-0.4,0.9l-8.4,3.4c0.5,2.5,1.2,5,1.9,7.5c0.3,0.7-0.1,1.6-0.8,1.8c0,0,0,0,0,0
		C213.9,339.4,213.6,339.4,213.2,339.4z"></path><path class="st0" d="M342.1,254.8c0,0,10,0.3,10.2,0s3.1-16.3,1.5-15.6s-4.9,9.1-4.9,9.1l-8,0.4"></path><path class="st1" d="M349.2,255.6c-1.6,0-3.9,0-7.2-0.1c-0.4,0-0.7-0.3-0.7-0.7c0,0,0,0,0,0c0-0.4,0.3-0.7,0.7-0.7c0,0,0,0,0,0
		c3.9,0.1,8.3,0.2,9.6,0.1c0.5-2.1,2-11.1,1.8-13.9c-1.6,2.6-2.9,5.3-4,8.2c-0.1,0.3-0.3,0.4-0.6,0.4l-8,0.4c-0.4,0-0.7-0.3-0.7-0.6
		c0,0,0,0,0,0c0-0.4,0.3-0.7,0.7-0.7c0,0,0,0,0,0l7.6-0.4c1-2.4,3.5-8.4,5.1-9c0.4-0.2,0.8,0,1.1,0.3c1.4,1.8-1.7,16.3-1.7,16.4
		C352.6,255.4,352.5,255.6,349.2,255.6z"></path><polygon class="st1" points="300.3,252.9 292.5,270.4 297,275.5 302,270.4 302,251.3 	"></polygon><path class="st0" d="M287.6,241.2l56.7,6l-1.6,10.2c0,0-46.1,1.1-57.6-2.5"></path><path class="st1" d="M327.4,258.3c-14.5,0-35.1-0.4-42.4-2.7c-0.4-0.1-0.6-0.5-0.5-0.9c0,0,0,0,0,0c0.1-0.4,0.5-0.6,0.9-0.5
		c10.5,3.3,51.4,2.6,56.8,2.5l1.4-8.9l-56-5.9c-0.4,0-0.7-0.4-0.6-0.8c0,0,0,0,0,0c0-0.4,0.4-0.7,0.8-0.6c0,0,0,0,0,0l56.7,6
		c0.2,0,0.4,0.1,0.5,0.3c0.1,0.2,0.2,0.3,0.1,0.5l-1.6,10.2c0,0.3-0.3,0.6-0.7,0.6C342.1,258.1,335.7,258.3,327.4,258.3z"></path></g><g id="Text"><path class="st4" d="M177,161.5h3.5v22.3h11.7v3.2H177V161.5z"></path><path class="st4" d="M194.1,178.6c0-1.2,0.2-2.4,0.7-3.5c2-4.6,7.3-6.8,12-4.8c2.2,0.9,3.9,2.7,4.8,4.8c0.5,1.1,0.7,2.3,0.7,3.5
		c0,2.4-0.9,4.7-2.6,6.4c-3.6,3.5-9.3,3.5-12.9,0C195,183.2,194.1,180.9,194.1,178.6L194.1,178.6z M197.6,178.6
		c0,0.8,0.1,1.7,0.4,2.4c0.2,0.7,0.6,1.3,1.1,1.9c0.5,0.5,1.1,1,1.8,1.2c1.5,0.6,3.2,0.6,4.7,0c0.7-0.3,1.3-0.7,1.8-1.2
		c0.5-0.5,0.9-1.2,1.1-1.9c0.5-1.6,0.5-3.3,0-4.8c-0.2-0.7-0.6-1.3-1.1-1.9c-0.5-0.5-1.1-1-1.8-1.2c-1.5-0.6-3.2-0.6-4.7,0
		c-0.7,0.3-1.3,0.7-1.8,1.2c-0.5,0.5-0.9,1.2-1.1,1.9C197.7,176.9,197.6,177.7,197.6,178.6z"></path><path class="st4" d="M216.5,172.1c0.9-0.8,2-1.5,3.2-1.9c1.2-0.4,2.4-0.6,3.6-0.6c1.1,0,2.2,0.1,3.2,0.5c0.8,0.3,1.6,0.7,2.2,1.3
		c0.6,0.5,1,1.1,1.3,1.8c0.3,0.7,0.4,1.4,0.4,2.2v8.7c0,0.6,0,1.2,0,1.7s0.1,1,0.1,1.4h-2.9c-0.1-0.9-0.1-1.7-0.1-2.6h-0.1
		c-0.6,1-1.5,1.8-2.6,2.4c-1.1,0.5-2.3,0.7-3.4,0.7c-0.8,0-1.5-0.1-2.3-0.3c-0.7-0.2-1.3-0.5-1.9-1c-0.5-0.4-1-1-1.3-1.6
		c-0.7-1.6-0.6-3.5,0.3-5c0.5-0.8,1.2-1.4,2-1.8c0.9-0.5,2-0.8,3-1c1.2-0.2,2.4-0.3,3.7-0.3h2.4v-0.7c0-0.4-0.1-0.9-0.2-1.3
		c-0.2-0.4-0.4-0.8-0.8-1.2c-0.4-0.4-0.8-0.7-1.3-0.8c-0.6-0.2-1.2-0.3-1.8-0.3c-0.6,0-1.1,0.1-1.6,0.2c-0.4,0.1-0.9,0.3-1.3,0.4
		c-0.4,0.2-0.7,0.4-1,0.6l-0.9,0.7L216.5,172.1z M225.7,178.9c-0.8,0-1.6,0-2.4,0.1c-0.8,0.1-1.5,0.2-2.2,0.5
		c-0.6,0.2-1.2,0.5-1.6,1c-0.4,0.4-0.7,1-0.6,1.7c-0.1,0.8,0.3,1.6,1,2.1c0.8,0.5,1.7,0.7,2.7,0.6c0.8,0,1.6-0.1,2.3-0.4
		c0.6-0.3,1.1-0.7,1.5-1.2c0.4-0.5,0.7-1,0.8-1.6c0.2-0.6,0.2-1.2,0.2-1.8v-1.1L225.7,178.9z"></path><path class="st4" d="M252.3,187.1h-3.2v-2.5H249c-0.6,0.9-1.5,1.7-2.6,2.1c-1.1,0.5-2.2,0.8-3.4,0.8c-1.2,0-2.5-0.2-3.6-0.7
		c-1-0.4-2-1.1-2.7-1.9c-0.8-0.8-1.3-1.8-1.7-2.9c-0.4-1.1-0.6-2.3-0.6-3.6c0-1.2,0.2-2.4,0.6-3.6c0.4-1.1,1-2,1.8-2.9
		c0.8-0.8,1.7-1.5,2.8-1.9c1.1-0.5,2.4-0.7,3.6-0.7c1.2,0,2.4,0.3,3.5,0.8c1,0.5,1.9,1.2,2.5,2.1h0.1v-12.7h3.2L252.3,187.1z
		 M243.4,184.5c0.8,0,1.6-0.1,2.4-0.4c0.7-0.3,1.3-0.7,1.8-1.2c0.5-0.5,0.9-1.2,1.1-1.9c0.5-1.6,0.5-3.3,0-4.8
		c-0.2-0.7-0.6-1.3-1.1-1.9c-0.5-0.5-1.1-1-1.8-1.2c-1.5-0.6-3.2-0.6-4.7,0c-0.7,0.3-1.3,0.7-1.8,1.2c-0.5,0.5-0.9,1.2-1.1,1.9
		c-0.5,1.6-0.5,3.3,0,4.8c0.2,0.7,0.6,1.3,1.1,1.9c0.5,0.5,1.1,1,1.8,1.2C241.8,184.4,242.6,184.5,243.4,184.5L243.4,184.5z"></path><path class="st4" d="M256.7,163.8c0-1.3,1.1-2.4,2.4-2.5c1.3,0,2.4,1.1,2.5,2.4c0,1.3-1.1,2.4-2.4,2.5c-0.7,0-1.3-0.2-1.7-0.7
		C257,165.1,256.7,164.5,256.7,163.8z M257.5,170h3.2v17.1h-3.2V170z"></path><path class="st4" d="M265.9,170h3.2v2.6h0.1c0.4-1,1.2-1.7,2.1-2.2c1.1-0.6,2.3-0.9,3.5-0.9c0.8,0,1.6,0.1,2.4,0.4
		c0.7,0.2,1.4,0.6,2,1.2c0.6,0.6,1.1,1.2,1.4,2c0.4,0.9,0.5,1.9,0.5,2.9v11h-3.2V177c0-0.7-0.1-1.4-0.3-2c-0.2-0.5-0.5-1-0.9-1.4
		c-0.4-0.3-0.8-0.6-1.2-0.8c-0.5-0.2-1-0.2-1.5-0.2c-0.6,0-1.3,0.1-1.9,0.3c-0.6,0.2-1.1,0.5-1.5,1c-0.5,0.5-0.8,1.1-1,1.8
		c-0.3,0.8-0.4,1.7-0.4,2.6v8.8h-3.2L265.9,170z"></path><path class="st4" d="M303.2,187c0,1.2-0.2,2.4-0.7,3.6c-0.4,1-1.1,2-1.9,2.8c-0.9,0.8-1.9,1.4-3,1.8c-1.2,0.5-2.5,0.7-3.8,0.7
		c-1.5,0-3-0.2-4.5-0.7c-1.4-0.5-2.8-1.3-3.9-2.4l2.2-2.7c0.8,0.9,1.7,1.6,2.8,2.1c1.1,0.5,2.2,0.7,3.4,0.7c1,0,2-0.1,3-0.5
		c0.7-0.3,1.4-0.8,1.9-1.4c0.5-0.5,0.8-1.2,1-1.9c0.2-0.7,0.3-1.4,0.3-2.1v-2.6h-0.1c-0.6,1-1.5,1.8-2.5,2.3
		c-1.1,0.5-2.2,0.7-3.4,0.7c-1.2,0-2.4-0.2-3.5-0.7c-2.1-0.8-3.7-2.5-4.6-4.6c-0.4-1.1-0.7-2.3-0.6-3.5c0-1.2,0.2-2.4,0.6-3.5
		c0.4-1.1,1-2,1.8-2.9c0.8-0.8,1.7-1.5,2.8-1.9c1.1-0.5,2.4-0.7,3.6-0.7c1.2,0,2.3,0.3,3.4,0.8c1,0.5,1.9,1.2,2.6,2.1h0.1V170h3.2
		L303.2,187z M294.3,172.6c-0.8,0-1.6,0.1-2.4,0.4c-0.7,0.3-1.3,0.7-1.8,1.2c-0.5,0.5-0.9,1.2-1.1,1.9c-0.3,0.8-0.4,1.6-0.4,2.4
		c-0.1,1.5,0.5,3,1.5,4.2c2.3,2.1,5.9,2.1,8.2,0c1-1.1,1.6-2.6,1.5-4.2c0-0.8-0.1-1.6-0.4-2.4c-0.2-0.7-0.6-1.3-1.1-1.9
		c-0.5-0.5-1.1-1-1.8-1.2C295.9,172.7,295.1,172.6,294.3,172.6L294.3,172.6z"></path><path class="st4" d="M310.7,187.3c-1.3,0-2.4-1.1-2.4-2.4c0-1.3,1.1-2.4,2.4-2.4c1.3,0,2.4,1.1,2.4,2.4c0,0.6-0.2,1.3-0.7,1.7
		C311.9,187.1,311.3,187.3,310.7,187.3z"></path><path class="st4" d="M320.7,187.3c-1.3,0.1-2.5-0.9-2.5-2.2s0.9-2.5,2.2-2.5c0.1,0,0.2,0,0.3,0c1.3,0.1,2.3,1.2,2.2,2.5
		C322.9,186.3,321.9,187.3,320.7,187.3z"></path><path class="st4" d="M330.8,187.3c-1.3,0-2.4-1.1-2.5-2.4c0-1.3,1.1-2.4,2.4-2.5c1.3,0,2.4,1.1,2.5,2.4c0,0.7-0.2,1.3-0.7,1.7
		C332,187.1,331.4,187.3,330.8,187.3z"></path></g></svg>